#N canvas 152 503 547 300 10;
#X declare -path ../Data -path ../Effects -path ../Misc -path ../Signal
-path ../Sources -path ../Unity;
#X declare -path ../Signal;
#X obj 21 266 outlet~ left;
#X obj 101 266 outlet~ right;
#X obj 22 13 declare -path ../Data -path ../Effects -path ../Misc -path
../Signal -path ../Sources -path ../Unity;
#X obj 22 46 inlet patterns;
#X obj 286 46 inlet messages;
#X obj 286 66 route Play Stop Step Sleep;
#X obj 22 165 square~ 312;
#X obj 22 185 adsr~ 20 250;
#X obj 22 86 sel 0;
#X obj 22 145 mtof;
#X obj 22 125 + 60;
#X obj 22 66 unpack f f;
#X msg 118 144 decay \$1;
#X obj 91 125 t b f;
#X connect 3 0 11 0;
#X connect 4 0 5 0;
#X connect 6 0 7 0;
#X connect 7 0 0 0;
#X connect 7 0 1 0;
#X connect 8 1 10 0;
#X connect 9 0 6 0;
#X connect 10 0 9 0;
#X connect 11 0 8 0;
#X connect 11 1 13 0;
#X connect 12 0 7 1;
#X connect 13 0 7 1;
#X connect 13 1 12 0;
