#N canvas 259 479 306 241 10;
#X obj 15 50 symbol \$2;
#X obj 143 50 \$3;
#X obj 15 11 inlet;
#X obj 15 30 t b b b;
#X obj 15 167 ==;
#X obj 39 167 !=;
#X obj 63 167 <;
#X obj 87 167 <=;
#X obj 111 167 >;
#X obj 135 167 >=;
#X obj 15 148 route == != < <= > >=;
#X obj 15 89 pack s f;
#X obj 76 89 pack s f;
#X obj 15 69 t s s;
#X obj 82 70 spigot;
#X msg 124 70 0;
#X msg 151 70 1;
#X obj 30 128 route == != < <= > >=;
#X obj 76 108 list trim;
#X obj 15 108 list trim;
#X obj 15 187 sel 1 0;
#X obj 15 206 outlet true;
#X obj 88 206 outlet false;
#X obj 157 5 inlet condition;
#X obj 157 24 unpack s s f;
#X obj 82 50 getvar \$1;
#X connect 0 0 13 0;
#X connect 1 0 12 1;
#X connect 2 0 3 0;
#X connect 3 0 0 0;
#X connect 3 1 25 0;
#X connect 3 2 1 0;
#X connect 3 2 16 0;
#X connect 4 0 20 0;
#X connect 5 0 20 0;
#X connect 6 0 20 0;
#X connect 7 0 20 0;
#X connect 8 0 20 0;
#X connect 9 0 20 0;
#X connect 10 0 4 0;
#X connect 10 1 5 0;
#X connect 10 2 6 0;
#X connect 10 3 7 0;
#X connect 10 4 8 0;
#X connect 10 5 9 0;
#X connect 11 0 19 0;
#X connect 12 0 18 0;
#X connect 13 0 11 0;
#X connect 13 1 12 0;
#X connect 14 0 15 0;
#X connect 14 0 11 1;
#X connect 15 0 14 1;
#X connect 16 0 14 1;
#X connect 17 0 4 1;
#X connect 17 1 5 1;
#X connect 17 2 6 1;
#X connect 17 3 7 1;
#X connect 17 4 8 1;
#X connect 17 5 9 1;
#X connect 18 0 17 0;
#X connect 19 0 10 0;
#X connect 20 0 21 0;
#X connect 20 1 22 0;
#X connect 23 0 24 0;
#X connect 24 0 25 1;
#X connect 24 1 0 1;
#X connect 24 2 1 1;
#X connect 25 0 14 0;
