#N canvas 466 528 298 218 10;
#X obj 19 12 inlet bang;
#X obj 19 185 outlet var;
#X obj 19 166 r var\$0;
#X obj 19 68 t b b;
#X obj 91 87 \$0;
#X msg 19 87 symbol var;
#X obj 19 106 pack s f;
#X msg 19 125 symbol \$1\$2;
#X obj 117 108 symbol \$1;
#X msg 117 127 symbol Get\$1;
#X obj 19 144 s;
#X obj 157 13 inlet varName;
#X obj 19 49 r var\$1;
#X connect 0 0 3 0;
#X connect 2 0 1 0;
#X connect 3 0 5 0;
#X connect 3 1 4 0;
#X connect 3 1 8 0;
#X connect 4 0 6 1;
#X connect 5 0 6 0;
#X connect 6 0 7 0;
#X connect 7 0 10 0;
#X connect 8 0 9 0;
#X connect 9 0 10 1;
#X connect 11 0 8 0;
#X connect 12 0 3 0;
