#N canvas 475 475 293 198 10;
#X obj 27 147 list append;
#X obj 27 128 spigot;
#X obj 27 48 route out;
#X msg 70 128 0;
#X msg 27 67 out;
#X obj 27 90 t b a;
#X msg 95 128 1;
#X obj 27 109 getvar \$1;
#X obj 27 29 inlet elementtoadd;
#X obj 27 167 setvar \$1;
#X connect 0 0 9 0;
#X connect 1 0 3 0;
#X connect 1 0 0 0;
#X connect 2 0 4 0;
#X connect 2 1 5 0;
#X connect 3 0 1 1;
#X connect 4 0 9 0;
#X connect 5 0 7 0;
#X connect 5 1 6 0;
#X connect 5 1 0 1;
#X connect 6 0 1 1;
#X connect 7 0 1 0;
#X connect 8 0 2 0;
