#N canvas 113 490 311 269 10;
#X obj 73 216 outlet popped;
#X obj 45 136 list split;
#X obj 73 156 list split 1;
#X obj 45 176 list append;
#X obj 45 76 t b f;
#X msg 45 56 0;
#X obj 45 36 route bang out;
#X msg 85 56 out;
#X obj 45 116 spigot;
#X msg 87 116 0;
#X msg 112 117 1;
#N canvas 98 577 304 193 adjustIndex 0;
#X obj 26 28 inlet index;
#X obj 26 163 outlet adjusted;
#X obj 53 68 >= 0;
#X obj 26 48 t f f;
#X obj 83 68 < 0;
#X obj 26 87 spigot;
#X obj 69 87 spigot;
#X obj 69 125 listLength \$1;
#X obj 69 106 t b f;
#X obj 69 144 +;
#X connect 0 0 3 0;
#X connect 2 0 5 1;
#X connect 3 0 5 0;
#X connect 3 0 6 0;
#X connect 3 1 2 0;
#X connect 3 1 4 0;
#X connect 4 0 6 1;
#X connect 5 0 1 0;
#X connect 6 0 8 0;
#X connect 7 0 9 0;
#X connect 8 0 7 0;
#X connect 8 1 9 1;
#X connect 9 0 1 0;
#X restore 126 56 pd adjustIndex;
#X obj 45 96 getvar \$1;
#X obj 45 196 setvar \$1;
#X obj 45 16 inlet popindex;
#X connect 1 0 3 0;
#X connect 1 1 2 0;
#X connect 2 0 0 0;
#X connect 2 1 3 1;
#X connect 3 0 13 0;
#X connect 4 0 12 0;
#X connect 4 1 1 1;
#X connect 4 1 10 0;
#X connect 5 0 4 0;
#X connect 6 0 5 0;
#X connect 6 1 7 0;
#X connect 6 2 11 0;
#X connect 7 0 13 0;
#X connect 8 0 1 0;
#X connect 8 0 9 0;
#X connect 9 0 8 1;
#X connect 10 0 8 1;
#X connect 11 0 4 0;
#X connect 12 0 8 0;
#X connect 14 0 6 0;
