#N canvas 163 596 288 150 10;
#X obj 21 -2 inlet value;
#X obj 96 63 symbol \$1;
#X obj 96 -2 inlet varName;
#X obj 21 99 s;
#X obj 21 118 s;
#X msg 96 101 symbol var\$1;
#X obj 21 37 route out;
#X msg 21 56 bang;
#X obj 21 18 t a b;
#X msg 96 82 symbol set\$1;
#X connect 0 0 8 0;
#X connect 1 0 9 0;
#X connect 1 0 5 0;
#X connect 2 0 1 0;
#X connect 5 0 4 1;
#X connect 6 0 7 0;
#X connect 6 1 3 0;
#X connect 7 0 4 0;
#X connect 8 0 6 0;
#X connect 8 1 1 0;
#X connect 9 0 3 1;
