#N canvas 232 491 306 272 10;
#X obj 15 50 symbol \$2;
#X obj 15 11 inlet;
#X obj 15 30 t b b b;
#X obj 15 228 outlet true;
#X obj 88 228 outlet false;
#X obj 149 50 symbol \$3;
#X obj 88 70 spigot;
#X msg 130 70 0;
#X msg 157 70 1;
#X obj 15 128 route == !=;
#X obj 15 90 pack s s;
#X obj 15 70 t s s;
#X obj 76 90 pack s s;
#X obj 88 128 route == !=;
#X msg 15 188 1;
#X msg 60 188 0;
#X msg 88 187 0;
#X msg 133 187 1;
#X obj 15 208 sel 1 0;
#X obj 15 109 list trim;
#X obj 76 109 list trim;
#X obj 15 147 symbol;
#X obj 57 147 symbol;
#X obj 99 147 symbol;
#X obj 141 147 symbol;
#X obj 178 9 inlet condition;
#X obj 178 28 unpack s s s;
#X obj 88 50 getvar \$1;
#X obj 88 167 select !;
#X obj 15 167 select !;
#X connect 0 0 11 0;
#X connect 1 0 2 0;
#X connect 2 0 0 0;
#X connect 2 1 27 0;
#X connect 2 2 5 0;
#X connect 2 2 8 0;
#X connect 5 0 12 1;
#X connect 6 0 7 0;
#X connect 6 0 10 1;
#X connect 7 0 6 1;
#X connect 8 0 6 1;
#X connect 9 0 21 0;
#X connect 9 1 22 0;
#X connect 10 0 19 0;
#X connect 11 0 10 0;
#X connect 11 1 12 0;
#X connect 12 0 20 0;
#X connect 13 0 23 0;
#X connect 13 1 24 0;
#X connect 14 0 18 0;
#X connect 15 0 18 0;
#X connect 16 0 18 0;
#X connect 17 0 18 0;
#X connect 18 0 3 0;
#X connect 18 1 4 0;
#X connect 19 0 9 0;
#X connect 20 0 13 0;
#X connect 21 0 29 0;
#X connect 22 0 28 0;
#X connect 23 0 29 1;
#X connect 24 0 28 1;
#X connect 25 0 26 0;
#X connect 26 0 27 1;
#X connect 26 1 0 1;
#X connect 26 2 5 1;
#X connect 27 0 6 0;
#X connect 28 0 16 0;
#X connect 28 1 17 0;
#X connect 29 0 14 0;
#X connect 29 1 15 0;
