#N canvas 272 614 311 136 10;
#X obj 17 86 symbol;
#X obj 17 105 s;
#X obj 17 27 t b s;
#X obj 50 67 symbol;
#X obj 17 8 r get\$1;
#X obj 50 48 r set\$1;
#X connect 0 0 1 0;
#X connect 2 0 0 0;
#X connect 2 1 1 1;
#X connect 3 0 0 1;
#X connect 4 0 2 0;
#X connect 5 0 3 0;
