#N canvas 210 626 348 178 10;
#X declare -path ../Signal;
#X obj 12 2 declare -path ../Signal;
#X obj 9 124 osc~ \$1;
#X obj 95 87 osc~ \$2;
#X obj 9 145 outlet~;
#X obj 10 49 default~ \$1;
#X obj 10 29 inlet~ source;
#X obj 95 50 default~ \$2;
#X obj 95 30 inlet~ modulator;
#X obj 198 30 inlet~ amplitude;
#X obj 95 108 *~;
#X obj 198 50 default~ \$3;
#X connect 1 0 3 0;
#X connect 2 0 9 0;
#X connect 4 0 1 0;
#X connect 5 0 4 0;
#X connect 6 0 2 0;
#X connect 7 0 6 0;
#X connect 8 0 10 0;
#X connect 9 0 1 0;
#X connect 10 0 9 1;
