#N canvas 206 509 304 210 10;
#X declare -path ../Signal;
#X obj 24 10 declare -path ../Signal;
#X obj 22 81 phasor~;
#X obj 22 61 default~ \$1;
#X obj 22 41 inlet~ frequency;
#X obj 22 101 *~ 2;
#X obj 22 121 -~ 1;
#X obj 22 141 outlet~;
#X obj 126 41 inlet phase;
#X connect 1 0 4 0;
#X connect 2 0 1 0;
#X connect 3 0 2 0;
#X connect 4 0 5 0;
#X connect 5 0 6 0;
#X connect 7 0 1 1;
