#N canvas 303 460 324 287 10;
#X declare -path ../Signal;
#X obj 22 11 declare -path ../Signal;
#X obj 22 60 default~ \$1;
#X obj 22 40 inlet~ frequency;
#X obj 227 40 inlet phase;
#X obj 21 239 outlet~;
#X obj 37 140 wrap~;
#X obj 22 100 phasor~;
#X obj 22 179 -~;
#X obj 22 199 *~ 2;
#X obj 22 119 -~;
#X obj 124 40 inlet~ dutycycle;
#X obj 37 159 -~ 0.5;
#X obj 22 219 clip~ -1 1;
#X obj 124 78 /~ 2;
#X obj 124 59 +~ 1;
#X obj 124 103 clip~ 0.001 0.999;
#X connect 1 0 6 0;
#X connect 2 0 1 0;
#X connect 3 0 6 1;
#X connect 5 0 11 0;
#X connect 6 0 9 0;
#X connect 7 0 8 0;
#X connect 8 0 12 0;
#X connect 9 0 5 0;
#X connect 9 0 7 0;
#X connect 10 0 14 0;
#X connect 11 0 7 1;
#X connect 12 0 4 0;
#X connect 13 0 15 0;
#X connect 14 0 13 0;
#X connect 15 0 9 1;
