#N canvas 378 465 309 237 10;
#X declare -path ../Signal;
#X obj 29 10 declare -path ../Signal;
#X obj 29 45 inlet~ frequency;
#X obj 133 45 inlet phase;
#X obj 50 105 *~ -1;
#X obj 50 124 +~ 1;
#X obj 29 143 min~;
#X obj 29 163 *~ 4;
#X obj 29 183 -~ 1;
#X obj 29 85 phasor~;
#X obj 29 65 default~ \$1;
#X obj 29 203 outlet~;
#X connect 1 0 9 0;
#X connect 2 0 8 1;
#X connect 3 0 4 0;
#X connect 4 0 5 1;
#X connect 5 0 6 0;
#X connect 6 0 7 0;
#X connect 7 0 10 0;
#X connect 8 0 3 0;
#X connect 8 0 5 0;
#X connect 9 0 8 0;
