#N canvas 248 210 882 294 10;
#X obj 44 255 outlet~;
#X obj 98 218 vline~;
#X obj 321 98 \$1;
#X obj 155 178 f;
#X obj 155 161 +;
#X msg 391 78 0;
#X msg 391 98 set 0 5;
#X msg 98 198 0 5 \, 1 10 \, 0.5 50 10 \, 0 10 110;
#X obj 294 78 t b b;
#X obj 294 118 pack f f;
#X msg 294 98 1;
#X msg 294 138 add2 \$1 \$2;
#X msg 331 78 addcomma;
#X msg 232 78 addcomma;
#X obj 195 119 pack f f f;
#X obj 195 98 \$3;
#X obj 223 98 \$2;
#X obj 195 78 t b b;
#X msg 195 139 add2 \$1 \$2 \$3;
#X msg 135 78 addcomma;
#X obj 98 119 pack f f f;
#X msg 98 99 0;
#X obj 98 78 t b b;
#X msg 98 140 add2 \$1 \$2 \$3;
#X obj 98 61 t b b b b b b b;
#X obj 252 98 \$1;
#X obj 155 98 \$4;
#X obj 125 98 \$5;
#X obj 758 81 unpack f f f f f;
#X obj 44 23 inlet~;
#X obj 44 234 *~;
#X obj 98 21 loadbang;
#X obj 457 41 inlet commands;
#X obj 500 121 s init\$0;
#X obj 457 61 route bang attack decay sustain hold release;
#X obj 98 41 r init\$0;
#X obj 500 81 t b f;
#X obj 544 81 t b f;
#X obj 587 81 t b f;
#X obj 631 81 t b f;
#X obj 674 81 t b f;
#X obj 718 81 t b a;
#X connect 1 0 30 1;
#X connect 2 0 9 1;
#X connect 2 0 4 0;
#X connect 3 0 4 1;
#X connect 3 0 20 2;
#X connect 4 0 3 0;
#X connect 5 0 3 1;
#X connect 5 0 4 1;
#X connect 5 0 6 0;
#X connect 6 0 7 0;
#X connect 7 0 1 0;
#X connect 8 0 10 0;
#X connect 8 1 2 0;
#X connect 9 0 11 0;
#X connect 10 0 9 0;
#X connect 11 0 7 0;
#X connect 12 0 7 0;
#X connect 13 0 7 0;
#X connect 14 0 18 0;
#X connect 15 0 14 0;
#X connect 16 0 14 1;
#X connect 16 0 4 0;
#X connect 17 0 15 0;
#X connect 17 1 16 0;
#X connect 17 1 25 0;
#X connect 18 0 7 0;
#X connect 19 0 7 0;
#X connect 20 0 23 0;
#X connect 21 0 20 0;
#X connect 22 0 21 0;
#X connect 22 1 26 0;
#X connect 22 1 27 0;
#X connect 23 0 7 0;
#X connect 24 0 22 0;
#X connect 24 1 19 0;
#X connect 24 2 17 0;
#X connect 24 3 13 0;
#X connect 24 4 8 0;
#X connect 24 5 12 0;
#X connect 24 6 5 0;
#X connect 25 0 14 2;
#X connect 26 0 4 0;
#X connect 27 0 20 1;
#X connect 28 0 2 1;
#X connect 28 0 25 1;
#X connect 28 1 16 1;
#X connect 28 2 15 1;
#X connect 28 3 26 1;
#X connect 28 4 27 1;
#X connect 29 0 30 0;
#X connect 30 0 0 0;
#X connect 31 0 24 0;
#X connect 32 0 34 0;
#X connect 34 0 7 0;
#X connect 34 1 36 0;
#X connect 34 2 37 0;
#X connect 34 3 38 0;
#X connect 34 4 39 0;
#X connect 34 5 40 0;
#X connect 34 6 41 0;
#X connect 35 0 24 0;
#X connect 36 0 33 0;
#X connect 36 1 2 1;
#X connect 36 1 25 1;
#X connect 37 0 33 0;
#X connect 37 1 16 1;
#X connect 38 0 33 0;
#X connect 38 1 15 1;
#X connect 39 0 33 0;
#X connect 39 1 26 1;
#X connect 40 0 33 0;
#X connect 40 1 27 1;
#X connect 41 0 33 0;
#X connect 41 1 28 0;
