#N canvas 893 562 344 181 10;
#X obj 12 18 inlet~ source1;
#X obj 105 18 inlet~ source2;
#X obj 11 134 *~;
#X obj 105 134 *~;
#X obj 37 114 cos~;
#X obj 199 58 default~ \$1;
#X obj 199 18 inlet~ blend;
#X obj 11 155 outlet~;
#X obj 199 118 sin~;
#X obj 199 78 +~ 1;
#X obj 199 98 /~ 8;
#X obj 199 38 clip~ -1 1;
#X connect 0 0 2 0;
#X connect 1 0 3 0;
#X connect 2 0 7 0;
#X connect 3 0 7 0;
#X connect 4 0 2 1;
#X connect 5 0 9 0;
#X connect 6 0 11 0;
#X connect 8 0 3 1;
#X connect 9 0 10 0;
#X connect 10 0 4 0;
#X connect 10 0 8 0;
#X connect 11 0 5 0;
