#N canvas 601 542 304 208 10;
#X obj 38 49 env~;
#X obj 23 87 sig~ \$1;
#X obj 23 107 *~;
#X obj 71 87 t b f;
#X msg 71 106 1;
#X obj 71 125 -;
#X obj 56 144 *~;
#X obj 23 170 outlet~;
#X obj 56 13 inlet~ override;
#X obj 38 68 == 0;
#X connect 0 0 9 0;
#X connect 1 0 2 0;
#X connect 2 0 7 0;
#X connect 3 0 4 0;
#X connect 3 1 5 1;
#X connect 4 0 5 0;
#X connect 5 0 6 1;
#X connect 6 0 7 0;
#X connect 8 0 0 0;
#X connect 8 0 6 0;
#X connect 9 0 2 1;
#X connect 9 0 3 0;
