#N canvas 692 525 305 180 10;
#X obj 54 140 outlet~;
#X obj 54 26 inlet~ signal;
#X obj 148 29 inlet~ envelope;
#X obj 148 67 dbtorms;
#X obj 148 48 env~ 4096;
#X obj 148 105 line~;
#X msg 148 86 \$1 10;
#X obj 54 121 *~;
#X connect 1 0 7 0;
#X connect 2 0 4 0;
#X connect 3 0 6 0;
#X connect 4 0 3 0;
#X connect 5 0 7 1;
#X connect 6 0 5 0;
#X connect 7 0 0 0;
