#N canvas 41 561 326 266 10;
#X obj 34 30 inlet~ signal;
#X obj 34 208 outlet~;
#X obj 104 208 outlet~;
#X obj 34 189 *~;
#X obj 104 189 *~;
#X obj 119 30 inlet;
#X obj 119 170 line~;
#X obj 49 170 line~;
#X obj 119 53 route 0 1 2;
#X msg 160 133 0 5;
#X msg 160 153 1 5;
#X msg 140 113 1 5;
#X msg 140 93 0 5;
#X msg 119 73 0 5;
#X connect 0 0 3 0;
#X connect 0 0 4 0;
#X connect 3 0 1 0;
#X connect 4 0 2 0;
#X connect 5 0 8 0;
#X connect 6 0 4 1;
#X connect 7 0 3 1;
#X connect 8 0 13 0;
#X connect 8 1 12 0;
#X connect 8 1 11 0;
#X connect 8 2 9 0;
#X connect 8 2 10 0;
#X connect 9 0 7 0;
#X connect 10 0 6 0;
#X connect 11 0 7 0;
#X connect 12 0 6 0;
#X connect 13 0 6 0;
#X connect 13 0 7 0;
