#N canvas 238 625 380 162 10;
#X obj 57 39 default~ \$1;
#X obj 160 38 default~ \$2;
#X obj 263 38 default~ \$3;
#X obj 19 115 outlet~;
#X obj 19 55 osc~;
#X obj 19 75 *~;
#X obj 19 95 +~;
#X obj 57 18 inlet~ frequency;
#X obj 160 18 inlet~ amplitude;
#X obj 263 18 inlet~ center;
#X connect 0 0 4 0;
#X connect 1 0 5 1;
#X connect 2 0 6 1;
#X connect 4 0 5 0;
#X connect 5 0 6 0;
#X connect 6 0 3 0;
#X connect 7 0 0 0;
#X connect 8 0 1 0;
#X connect 9 0 2 0;
