#N canvas 185 653 324 162 10;
#X obj 19 127 outlet~ left;
#X obj 102 127 outlet~ right;
#X obj 19 11 inlet~ signal;
#X obj 132 11 inlet~ pan;
#X obj 19 107 *~;
#X obj 102 107 *~;
#X obj 45 91 cos~;
#X obj 132 52 +~ 1;
#X obj 132 72 /~ 8;
#X obj 132 32 default~ \$1;
#X obj 132 91 sin~;
#X connect 2 0 4 0;
#X connect 2 0 5 0;
#X connect 3 0 9 0;
#X connect 4 0 0 0;
#X connect 5 0 1 0;
#X connect 6 0 4 1;
#X connect 7 0 8 0;
#X connect 8 0 6 0;
#X connect 8 0 10 0;
#X connect 9 0 7 0;
#X connect 10 0 5 1;
