#N canvas 40 540 364 253 10;
#X obj 24 134 unsig~;
#X obj 24 153 change;
#X obj 24 76 phasor~;
#X obj 24 212 outlet~;
#X obj 95 211 outlet done;
#X msg 95 189 bang;
#X obj 24 115 samphold~;
#X msg 52 192 0;
#X obj 24 19 inlet~ frequency;
#X obj 127 19 inlet~ amplitude;
#X obj 24 38 default~ \$1;
#X obj 127 38 default~ \$2;
#X obj 24 95 *~;
#X obj 24 57 *~;
#X obj 230 19 inlet bang;
#X msg 257 59 0;
#X obj 230 39 t b b;
#X msg 230 59 1;
#X obj 24 172 sel 0;
#X connect 0 0 1 0;
#X connect 1 0 18 0;
#X connect 2 0 12 0;
#X connect 5 0 4 0;
#X connect 6 0 0 0;
#X connect 7 0 2 1;
#X connect 7 0 13 1;
#X connect 8 0 10 0;
#X connect 9 0 11 0;
#X connect 10 0 13 0;
#X connect 11 0 12 1;
#X connect 12 0 6 1;
#X connect 12 0 3 0;
#X connect 12 0 6 0;
#X connect 13 0 2 0;
#X connect 14 0 16 0;
#X connect 15 0 2 1;
#X connect 16 0 17 0;
#X connect 16 1 15 0;
#X connect 17 0 13 1;
#X connect 18 0 5 0;
#X connect 18 1 7 0;
