#N canvas 489 624 318 197 10;
#X obj 23 93 inlet~ signal;
#X obj 114 58 inlet~ sampledelay;
#X obj 23 133 outlet~ delayed;
#X obj 230 80 / 1000;
#X obj 114 77 default~ \$1;
#X obj 230 41 loadbang;
#X obj 230 60 samplerate~;
#N canvas 823 710 318 111 delayer 0;
#X obj 15 19 inlet~;
#X obj 144 72 block~ 1;
#X obj 144 43 inlet~;
#X obj 15 79 outlet~;
#X obj 15 39 delwrite~ delay\$0 1;
#X obj 15 59 vd~ delay\$0 \$1;
#X connect 0 0 4 0;
#X connect 2 0 5 0;
#X connect 5 0 3 0;
#X restore 23 113 pd delayer;
#X obj 114 97 /~;
#X text 25 4 Minimum delay is 2 samples;
#X obj 181 135 timedelay~ \$1;
#X connect 0 0 7 0;
#X connect 1 0 4 0;
#X connect 3 0 8 1;
#X connect 4 0 8 0;
#X connect 5 0 6 0;
#X connect 6 0 3 0;
#X connect 7 0 2 0;
#X connect 8 0 7 1;
