#N canvas 902 500 304 123 10;
#X obj 23 23 inlet~ signal;
#X obj 131 43 default~ \$1;
#X obj 23 79 outlet~ delayed;
#X obj 131 23 inlet~ timedelay;
#N canvas 823 710 318 111 delayer 1;
#X obj 15 19 inlet~;
#X obj 144 72 block~ 1;
#X obj 144 43 inlet~;
#X obj 15 79 outlet~;
#X obj 15 59 vd~ delay\$0;
#X obj 15 39 delwrite~ delay\$0 1;
#X connect 0 0 5 0;
#X connect 2 0 4 0;
#X connect 4 0 3 0;
#X restore 23 59 pd delayer;
#X connect 0 0 4 0;
#X connect 1 0 4 1;
#X connect 3 0 1 0;
#X connect 4 0 2 0;
