#N canvas 587 452 293 159 10;
#X obj 13 69 ==;
#X msg 13 49 0;
#X obj 13 89 sel 1;
#X obj 13 109 t b b;
#X msg 40 52 1;
#X obj 13 129 outlet;
#X obj 13 9 inlet;
#X obj 13 29 r uloadbang;
#X connect 0 0 2 0;
#X connect 1 0 0 0;
#X connect 2 0 3 0;
#X connect 3 0 5 0;
#X connect 3 1 4 0;
#X connect 4 0 0 1;
#X connect 6 0 3 0;
#X connect 7 0 1 0;
