#N canvas 410 503 445 150 10;
#X obj 31 36 inlet~;
#X obj 224 38 inlet~;
#X obj 30 113 outlet~;
#X obj 224 113 outlet~;
#X obj 30 93 *~;
#X obj 62 77 line~;
#X obj 256 77 line~;
#X obj 224 93 *~;
#X obj 62 57 r uspatializer_pan_left\$1;
#X obj 256 57 r uspatializer_pan_right\$1;
#X connect 0 0 4 0;
#X connect 1 0 7 0;
#X connect 4 0 2 0;
#X connect 5 0 4 1;
#X connect 6 0 7 1;
#X connect 7 0 3 0;
#X connect 8 0 5 0;
#X connect 9 0 6 0;
