#N canvas 396 582 324 216 10;
#X declare -path ../Signal;
#X obj 18 11 declare -path ../Signal;
#X obj 17 157 outlet~ left;
#X obj 141 157 outlet~ right;
#X obj 17 40 inlet~ signal;
#X obj 17 137 pan~;
#X obj 38 60 inlet commands;
#X obj 38 79 route frequency amplitude center;
#X obj 38 98 unpack f f f;
#X obj 38 117 lfo~ \$1 \$2 \$3;
#X connect 3 0 4 0;
#X connect 4 0 1 0;
#X connect 4 1 2 0;
#X connect 5 0 6 0;
#X connect 6 0 8 0;
#X connect 6 1 8 1;
#X connect 6 2 8 2;
#X connect 6 3 7 0;
#X connect 7 0 8 0;
#X connect 7 1 8 1;
#X connect 7 2 8 2;
#X connect 8 0 4 1;
