#N canvas 711 523 299 125 10;
#X obj 14 15 inlet~;
#X obj 14 98 outlet~;
#X obj 160 20 inlet commands;
#X obj 160 40 route time feedback;
#X obj 160 60 unpack f f;
#X obj 14 77 *~ \$2;
#X obj 161 96 block~ 1;
#X obj 14 35 delwrite~ delay\$0 \$1;
#X obj 14 57 delread~ delay\$0 \$1;
#X connect 0 0 7 0;
#X connect 2 0 3 0;
#X connect 3 0 8 0;
#X connect 3 1 5 1;
#X connect 3 2 4 0;
#X connect 4 0 8 0;
#X connect 4 1 5 1;
#X connect 5 0 7 0;
#X connect 8 0 5 0;
#X connect 8 0 1 0;
