#N canvas 629 548 354 220 10;
#X declare -path ../Signal;
#X obj 20 11 declare -path ../Signal;
#X obj 22 40 inlet~ signal;
#X obj 22 192 outlet~ flanged;
#X obj 182 120 / 2;
#X obj 266 63 loadbang;
#X obj 266 84 \$2;
#X obj 109 83 unpack f f;
#X obj 109 40 inlet commands;
#X obj 109 156 lfo~ \$1;
#X obj 109 63 route frequency amplitude;
#X obj 22 172 timedelay~ \$2;
#X obj 182 101 clip 2 50;
#X obj 182 139 + 0.5;
#X connect 1 0 2 0;
#X connect 1 0 10 0;
#X connect 3 0 8 1;
#X connect 3 0 12 0;
#X connect 4 0 5 0;
#X connect 5 0 11 0;
#X connect 6 0 8 0;
#X connect 6 1 11 0;
#X connect 7 0 9 0;
#X connect 8 0 10 1;
#X connect 9 0 8 0;
#X connect 9 2 6 0;
#X connect 10 0 2 0;
#X connect 11 0 3 0;
#X connect 12 0 8 2;
