#N canvas 1018 600 345 286 10;
#X declare -path ../Signal;
#X obj 13 7 declare -path ../Signal;
#X obj 39 90 rpole~;
#X obj 39 70 rzero_rev~;
#X obj 39 130 rpole~;
#X obj 39 110 rzero_rev~;
#X obj 39 170 rpole~;
#X obj 39 150 rzero_rev~;
#X obj 39 210 rpole~;
#X obj 39 190 rzero_rev~;
#X obj 12 226 +~;
#X obj 12 50 inlet~ signal;
#X obj 12 246 outlet~;
#X obj 133 110 *~;
#X obj 118 194 -~;
#X obj 118 174 sig~ 0.9;
#X obj 133 32 inlet commands;
#X obj 133 51 route frequency amplitude center;
#X obj 133 70 unpack f f f;
#X obj 133 90 lfo~ \$1 \$2 \$3;
#X obj 134 150 clip~ 0 0.8;
#X obj 133 130 *~ 0.8;
#X connect 1 0 4 0;
#X connect 2 0 1 0;
#X connect 3 0 6 0;
#X connect 4 0 3 0;
#X connect 5 0 8 0;
#X connect 6 0 5 0;
#X connect 7 0 9 1;
#X connect 8 0 7 0;
#X connect 9 0 11 0;
#X connect 10 0 9 0;
#X connect 10 0 2 0;
#X connect 12 0 20 0;
#X connect 13 0 2 1;
#X connect 13 0 1 1;
#X connect 13 0 4 1;
#X connect 13 0 3 1;
#X connect 13 0 6 1;
#X connect 13 0 5 1;
#X connect 13 0 8 1;
#X connect 13 0 7 1;
#X connect 14 0 13 0;
#X connect 15 0 16 0;
#X connect 16 0 18 0;
#X connect 16 1 18 1;
#X connect 16 2 18 2;
#X connect 16 3 17 0;
#X connect 17 0 18 0;
#X connect 17 1 18 1;
#X connect 17 2 18 2;
#X connect 18 0 12 0;
#X connect 18 0 12 1;
#X connect 19 0 13 1;
#X connect 20 0 19 0;
