#N canvas 407 264 478 462 10;
#X obj 112 429 outlet~;
#X obj -28 12 inlet~;
#X obj 163 330 *~;
#X obj 178 276 line~;
#X obj 112 175 exp;
#X obj 112 233 /;
#X obj 178 197 * 0.001;
#X obj 322 334 line~;
#X obj 163 350 +~;
#X obj 112 369 cos~;
#X obj 112 389 *~;
#X obj 112 409 +~;
#X obj 232 312 wrap~;
#X obj 285 337 *~;
#X obj 285 358 +~;
#X obj 232 373 cos~;
#X obj 232 393 *~;
#X obj 178 216 t b f;
#X obj 232 292 +~ 0.5;
#X obj 112 330 -~ 0.5;
#X obj 112 350 *~ 0.5;
#X obj 232 333 -~ 0.5;
#X obj 232 353 *~ 0.5;
#X obj 112 195 - 1;
#X obj 112 155 * 0.05776;
#X obj 112 214 * -1;
#X obj 112 276 phasor~;
#X obj 322 294 max 1.5;
#X obj 178 178 max 1;
#X obj 163 373 vd~ \$0-del;
#X obj 285 377 vd~ \$0-del;
#X obj -28 32 delwrite~ \$0-del 5000;
#X obj 112 34 route transpose window delay;
#X obj 357 54 loadbang;
#X obj 112 71 \$1;
#X obj 167 71 \$2;
#X obj 222 71 \$3;
#X obj 167 90 sel 0;
#X msg 167 109 64;
#X obj 277 54 unpack f f f;
#X obj 112 15 inlet messages;
#X msg 178 256 \$1 10;
#X msg 322 314 \$1 10;
#X connect 1 0 31 0;
#X connect 2 0 8 0;
#X connect 3 0 2 1;
#X connect 3 0 13 1;
#X connect 4 0 23 0;
#X connect 5 0 26 0;
#X connect 6 0 17 0;
#X connect 7 0 8 1;
#X connect 7 0 14 1;
#X connect 8 0 29 0;
#X connect 9 0 10 0;
#X connect 10 0 11 0;
#X connect 11 0 0 0;
#X connect 12 0 13 0;
#X connect 12 0 21 0;
#X connect 13 0 14 0;
#X connect 14 0 30 0;
#X connect 15 0 16 0;
#X connect 16 0 11 1;
#X connect 17 0 5 0;
#X connect 17 1 5 1;
#X connect 18 0 12 0;
#X connect 19 0 20 0;
#X connect 20 0 9 0;
#X connect 21 0 22 0;
#X connect 22 0 15 0;
#X connect 23 0 25 0;
#X connect 24 0 4 0;
#X connect 25 0 5 0;
#X connect 26 0 2 0;
#X connect 26 0 19 0;
#X connect 26 0 18 0;
#X connect 27 0 42 0;
#X connect 28 0 6 0;
#X connect 28 0 41 0;
#X connect 29 0 10 1;
#X connect 30 0 16 1;
#X connect 32 0 34 0;
#X connect 32 1 35 0;
#X connect 32 2 36 0;
#X connect 32 3 39 0;
#X connect 33 0 34 0;
#X connect 33 0 35 0;
#X connect 33 0 36 0;
#X connect 34 0 24 0;
#X connect 35 0 37 0;
#X connect 36 0 27 0;
#X connect 37 0 38 0;
#X connect 37 1 28 0;
#X connect 38 0 28 0;
#X connect 39 0 34 0;
#X connect 39 1 35 0;
#X connect 39 2 36 0;
#X connect 40 0 32 0;
#X connect 41 0 3 0;
#X connect 42 0 7 0;
