#N canvas 386 330 735 460 10;
#X declare -path ../Data;
#X obj -71 18 declare -path ../Data;
#X obj 1 330 +~;
#X obj 16 287 *~;
#X obj 258 308 *~;
#X obj 95 287 *~;
#X obj 176 308 *~;
#X obj 227 351 -~;
#X obj 177 351 -~;
#X obj 65 351 +~;
#X obj 1 350 +~;
#X obj 1 308 +~;
#X obj 80 308 +~;
#X obj 243 331 -~;
#X obj 177 330 +~;
#X obj 65 328 -~;
#X obj 430 271 line~;
#X obj 16 102 delread~ \$0-del1 58.6435;
#X obj 94 122 delread~ \$0-del2 69.4325;
#X obj 176 142 delread~ \$0-del3 74.5234;
#X obj 259 162 delread~ \$0-del4 86.1244;
#X obj 1 431 delwrite~ \$0-del1 58.6435;
#X obj 65 411 delwrite~ \$0-del2 69.4325;
#X obj 178 391 delwrite~ \$0-del3 74.5234;
#X obj 227 371 delwrite~ \$0-del4 86.1244;
#X obj 314 343 outlet~;
#X obj 32 181 lop~;
#X obj 367 67 loadbang;
#N canvas 345 88 287 444 early-reflect 0;
#X obj 65 382 delread~ \$0-ref6 13.645;
#X obj 64 363 delwrite~ \$0-ref6 13.645;
#X obj 41 318 delread~ \$0-ref5 16.364;
#X obj 41 298 delwrite~ \$0-ref5 16.364;
#X obj 41 258 delread~ \$0-ref4 19.392;
#X obj 41 238 delwrite~ \$0-ref4 19.392;
#X obj 41 198 delread~ \$0-ref3 25.796;
#X obj 41 179 delwrite~ \$0-ref3 25.796;
#X obj 40 135 delread~ \$0-ref2 43.5337;
#X obj 40 116 delwrite~ \$0-ref2 43.5337;
#X obj 40 73 delread~ \$0-ref1 75.2546;
#X obj 40 94 -~;
#X obj 15 94 +~;
#X obj 15 157 +~;
#X obj 41 157 -~;
#X obj 41 218 -~;
#X obj 15 217 +~;
#X obj 41 278 -~;
#X obj 15 279 +~;
#X obj 42 338 -~;
#X obj 15 338 +~;
#X obj 15 17 inlet~;
#X obj 40 54 delwrite~ \$0-ref1 75.2546;
#X obj 15 403 outlet~;
#X obj 65 402 outlet~;
#X connect 0 0 24 0;
#X connect 2 0 20 1;
#X connect 2 0 19 1;
#X connect 4 0 18 1;
#X connect 4 0 17 1;
#X connect 6 0 16 1;
#X connect 6 0 15 1;
#X connect 8 0 13 1;
#X connect 8 0 14 1;
#X connect 10 0 12 1;
#X connect 10 0 11 1;
#X connect 11 0 9 0;
#X connect 12 0 14 0;
#X connect 12 0 13 0;
#X connect 13 0 16 0;
#X connect 13 0 15 0;
#X connect 14 0 7 0;
#X connect 15 0 5 0;
#X connect 16 0 18 0;
#X connect 16 0 17 0;
#X connect 17 0 3 0;
#X connect 18 0 20 0;
#X connect 18 0 19 0;
#X connect 19 0 1 0;
#X connect 20 0 23 0;
#X connect 21 0 12 0;
#X connect 21 0 11 0;
#X connect 21 0 22 0;
#X restore -109 292 pd early-reflect;
#X obj 494 205 line~;
#X obj 32 201 -~;
#X obj 31 221 *~;
#X obj 16 241 +~;
#X obj 112 181 lop~;
#X obj 111 201 -~;
#X obj 110 222 *~;
#X obj 95 241 +~;
#X obj 192 181 lop~;
#X obj 192 201 -~;
#X obj 191 222 *~;
#X obj 176 241 +~;
#X obj 274 181 lop~;
#X obj 274 201 -~;
#X obj 274 222 *~;
#X obj 259 241 +~;
#X msg 430 164 \$1 10;
#X obj 430 45 route feedback damping;
#X obj 430 84 \$1;
#X obj 430 104 clip 0 1;
#X obj 430 144 / 2;
#X obj 494 124 clip 0 1;
#X msg 494 185 \$1 10;
#X obj 494 84 \$2;
#X obj 430 64 unpack f f;
#X obj 494 145 oneminus;
#X obj 494 164 * 10000;
#X obj 430 24 inlet commands;
#X obj -109 271 inlet~ signal;
#X obj 430 124 pow 0.25;
#X obj 314 324 *~ 0.125;
#X connect 1 0 9 0;
#X connect 1 0 7 0;
#X connect 2 0 10 1;
#X connect 3 0 12 1;
#X connect 3 0 13 1;
#X connect 3 0 58 0;
#X connect 4 0 11 1;
#X connect 5 0 13 0;
#X connect 5 0 12 0;
#X connect 5 0 58 0;
#X connect 6 0 23 0;
#X connect 7 0 22 0;
#X connect 8 0 21 0;
#X connect 9 0 20 0;
#X connect 10 0 14 0;
#X connect 10 0 1 0;
#X connect 10 0 58 0;
#X connect 11 0 1 1;
#X connect 11 0 14 1;
#X connect 11 0 58 0;
#X connect 12 0 8 1;
#X connect 12 0 6 1;
#X connect 13 0 9 1;
#X connect 13 0 7 1;
#X connect 14 0 8 0;
#X connect 14 0 6 0;
#X connect 15 0 4 1;
#X connect 15 0 2 1;
#X connect 15 0 5 1;
#X connect 15 0 3 1;
#X connect 16 0 25 0;
#X connect 16 0 29 1;
#X connect 16 0 31 0;
#X connect 17 0 32 0;
#X connect 17 0 33 1;
#X connect 17 0 35 0;
#X connect 18 0 39 0;
#X connect 18 0 36 0;
#X connect 18 0 37 1;
#X connect 19 0 43 0;
#X connect 19 0 41 1;
#X connect 19 0 40 0;
#X connect 25 0 29 0;
#X connect 26 0 46 0;
#X connect 26 0 51 0;
#X connect 27 0 10 0;
#X connect 27 1 11 0;
#X connect 28 0 30 1;
#X connect 28 0 34 1;
#X connect 28 0 38 1;
#X connect 28 0 42 1;
#X connect 29 0 30 0;
#X connect 30 0 31 1;
#X connect 31 0 2 0;
#X connect 32 0 33 0;
#X connect 33 0 34 0;
#X connect 34 0 35 1;
#X connect 35 0 4 0;
#X connect 36 0 37 0;
#X connect 37 0 38 0;
#X connect 38 0 39 1;
#X connect 39 0 5 0;
#X connect 40 0 41 0;
#X connect 41 0 42 0;
#X connect 42 0 43 1;
#X connect 43 0 3 0;
#X connect 44 0 15 0;
#X connect 45 0 46 0;
#X connect 45 1 51 0;
#X connect 45 2 52 0;
#X connect 46 0 47 0;
#X connect 47 0 57 0;
#X connect 48 0 44 0;
#X connect 49 0 50 0;
#X connect 49 0 53 0;
#X connect 50 0 28 0;
#X connect 51 0 49 0;
#X connect 52 0 46 0;
#X connect 52 1 51 0;
#X connect 53 0 54 0;
#X connect 54 0 40 1;
#X connect 54 0 36 1;
#X connect 54 0 32 1;
#X connect 54 0 25 1;
#X connect 55 0 45 0;
#X connect 56 0 27 0;
#X connect 57 0 48 0;
#X connect 58 0 24 0;
