#N canvas 667 614 289 250 10;
#X declare -path ../Signal;
#X obj 16 11 declare -path ../Signal;
#X obj 16 44 inlet~;
#X obj 16 217 outlet~;
#X obj 16 197 *~;
#X obj 147 104 / 2;
#X obj 147 124 t b f;
#X msg 147 144 1;
#X obj 147 164 -;
#X obj 217 67 loadbang;
#X obj 217 87 \$2;
#X obj 60 87 unpack f f;
#X obj 60 44 inlet commands;
#X obj 60 181 lfo~ \$1;
#X obj 60 67 route frequency amplitude;
#X connect 1 0 3 0;
#X connect 3 0 2 0;
#X connect 4 0 5 0;
#X connect 4 0 12 1;
#X connect 5 0 6 0;
#X connect 5 1 7 1;
#X connect 6 0 7 0;
#X connect 7 0 12 2;
#X connect 8 0 9 0;
#X connect 9 0 4 0;
#X connect 10 0 12 0;
#X connect 10 1 4 0;
#X connect 11 0 13 0;
#X connect 12 0 3 1;
#X connect 13 0 12 0;
#X connect 13 1 4 0;
#X connect 13 2 10 0;
