#N canvas 171 626 575 88 10;
#N canvas 469 491 515 219 memoryreader 1;
#X obj 12 73 phasor~;
#X obj 12 112 *~;
#X obj 12 -5 r uaudiosource_readspeed\$1;
#X obj 79 56 r uaudiosource_phase\$1;
#X obj 79 75 r uaudiosource_clipsamples\$1;
#X obj 12 14 line~;
#X obj 219 125 switch~;
#X obj 219 106 r uaudiosource_memoryreaderswitch\$1;
#N canvas 54 520 359 94 reader 1;
#X obj 14 13 inlet~;
#X obj 14 52 outlet~;
#N canvas 159 390 417 107 mono 1;
#X obj 22 18 inlet~;
#X obj 22 75 outlet~;
#X obj 236 37 switch~;
#X obj 236 17 r uaudiosource_monoswitch\$1;
#X obj 89 17 inlet;
#X msg 89 37 set uaudioclip_left\$1;
#X obj 22 54 tabread4~;
#X connect 0 0 6 0;
#X connect 3 0 2 0;
#X connect 4 0 5 0;
#X connect 5 0 6 0;
#X connect 6 0 1 0;
#X restore 14 32 pd mono;
#N canvas 192 483 543 142 stereo 1;
#X obj 32 23 inlet~;
#X obj 32 104 outlet~;
#X obj 97 104 outlet~;
#X obj 324 43 r uaudiosource_stereoswitch\$1;
#X obj 324 63 switch~;
#X obj 172 44 inlet;
#X msg 32 64 set uaudioclip_left\$1;
#X msg 172 64 set uaudioclip_right\$1;
#X obj 32 84 tabread4~;
#X obj 97 84 tabread4~;
#X connect 0 0 8 0;
#X connect 0 0 9 0;
#X connect 3 0 4 0;
#X connect 5 0 6 0;
#X connect 5 0 7 0;
#X connect 6 0 8 0;
#X connect 7 0 9 0;
#X connect 8 0 1 0;
#X connect 9 0 2 0;
#X restore 63 32 pd stereo;
#X obj 114 52 outlet~;
#X obj 131 15 r uaudiosource_clipname\$1;
#X connect 0 0 2 0;
#X connect 0 0 3 0;
#X connect 2 0 1 0;
#X connect 2 0 4 0;
#X connect 3 0 1 0;
#X connect 3 1 4 0;
#X connect 5 0 2 1;
#X connect 5 0 3 1;
#X restore 12 131 pd reader;
#X obj 12 150 outlet~ left;
#X obj 91 150 outlet~ right;
#N canvas 686 462 408 215 stopper 0;
#X obj 26 70 r uaudiosource_threshold\$1;
#X msg 26 128 set \$1 0 1 0;
#X obj 26 30 inlet~;
#X obj 193 30 r uaudiosource_stopperswitch\$1;
#X obj 193 50 switch~;
#X obj 26 166 \$1;
#X obj 176 166 \$1;
#X obj 26 90 line;
#X obj 26 109 wrap;
#X obj 26 185 s uaudiosource_fadeout;
#X obj 176 185 s uaudiosource_stop;
#X obj 89 30 inlet;
#N canvas 276 583 312 148 inverter 0;
#X obj 16 18 inlet~;
#X obj 90 22 inlet;
#X obj 46 78 -~;
#X obj 16 79 *~;
#X obj 16 122 outlet~;
#X obj 90 62 >= 0;
#N canvas 555 544 310 141 oneminus 0;
#X obj 22 26 inlet;
#X obj 22 102 outlet;
#X obj 22 45 t b f;
#X obj 22 83 -;
#X msg 22 64 1;
#X connect 0 0 2 0;
#X connect 2 0 4 0;
#X connect 2 1 3 1;
#X connect 3 0 1 0;
#X connect 4 0 3 0;
#X restore 90 82 pd oneminus;
#X obj 45 99 *~;
#X obj 90 42 line;
#X obj 46 59 sig~ 1;
#X connect 0 0 3 0;
#X connect 0 0 2 1;
#X connect 1 0 8 0;
#X connect 2 0 7 0;
#X connect 3 0 4 0;
#X connect 5 0 3 1;
#X connect 5 0 6 0;
#X connect 6 0 7 1;
#X connect 7 0 4 0;
#X connect 8 0 5 0;
#X connect 9 0 2 0;
#X restore 26 50 pd inverter;
#X obj 176 147 delay;
#X obj 176 128 t b f;
#X obj 176 109 r uaudiosource_stopdelay\$1;
#X obj 26 147 threshold~;
#X connect 0 0 7 0;
#X connect 1 0 16 0;
#X connect 2 0 12 0;
#X connect 3 0 4 0;
#X connect 5 0 9 0;
#X connect 6 0 10 0;
#X connect 7 0 1 0;
#X connect 7 0 8 0;
#X connect 8 0 1 0;
#X connect 11 0 12 1;
#X connect 12 0 16 0;
#X connect 13 0 6 0;
#X connect 14 0 13 0;
#X connect 14 1 13 1;
#X connect 15 0 14 0;
#X connect 16 0 5 0;
#X restore 12 92 pd stopper;
#X obj 174 17 line~;
#X obj 174 -2 r uaudiosource_doppler\$1;
#X obj 12 33 *~;
#X obj 37 36 r uaudiosource_pause\$1;
#X obj 12 53 *~;
#X connect 0 0 1 0;
#X connect 0 0 11 0;
#X connect 1 0 8 0;
#X connect 2 0 5 0;
#X connect 2 0 11 1;
#X connect 3 0 0 1;
#X connect 4 0 1 1;
#X connect 5 0 14 0;
#X connect 7 0 6 0;
#X connect 8 0 9 0;
#X connect 8 1 10 0;
#X connect 12 0 14 1;
#X connect 13 0 12 0;
#X connect 14 0 16 0;
#X connect 15 0 16 1;
#X connect 16 0 0 0;
#X restore 1 17 pd memoryreader;
#X obj 248 20 r uaudiosource_output\$1;
#X msg 248 40 set \$1_left;
#X msg 328 40 set \$1_right;
#N canvas 1041 457 433 307 spatialize 0;
#X obj 31 36 inlet~;
#X obj 224 38 inlet~;
#X obj 30 262 outlet~;
#X obj 224 262 outlet~;
#X obj 62 57 r uaudiosource_pan_left\$1;
#X obj 256 57 r uaudiosource_pan_right\$1;
#X obj 30 93 *~;
#X obj 62 77 line~;
#X obj 256 77 line~;
#X obj 224 93 *~;
#X obj 30 192 *~;
#X obj 224 192 *~;
#X obj 256 176 line~;
#X obj 256 156 r uaudiosource_volume\$1;
#X obj 30 143 *~;
#X obj 224 143 *~;
#X obj 256 127 line~;
#X obj 256 107 r uaudiosource_fade\$1;
#X obj 30 242 *~;
#X obj 224 242 *~;
#X obj 256 226 line~;
#X obj 256 206 r uaudiosource_pausevolume\$1;
#X connect 0 0 6 0;
#X connect 1 0 9 0;
#X connect 4 0 7 0;
#X connect 5 0 8 0;
#X connect 6 0 14 0;
#X connect 7 0 6 1;
#X connect 8 0 9 1;
#X connect 9 0 15 0;
#X connect 10 0 18 0;
#X connect 11 0 19 0;
#X connect 12 0 11 1;
#X connect 12 0 10 1;
#X connect 13 0 12 0;
#X connect 14 0 10 0;
#X connect 15 0 11 0;
#X connect 16 0 15 1;
#X connect 16 0 14 1;
#X connect 17 0 16 0;
#X connect 18 0 2 0;
#X connect 19 0 3 0;
#X connect 20 0 19 1;
#X connect 20 0 18 1;
#X connect 21 0 20 0;
#X restore 1 37 pd spatialize;
#X obj 417 21 r uaudiosource_switch\$1;
#X obj 417 40 switch~;
#X obj 121 57 throw~ Master_right;
#X obj 1 57 throw~ Master_left;
#X connect 0 0 4 0;
#X connect 0 1 4 1;
#X connect 1 0 2 0;
#X connect 1 0 3 0;
#X connect 2 0 8 0;
#X connect 3 0 7 0;
#X connect 4 0 8 0;
#X connect 4 1 7 0;
#X connect 5 0 6 0;
