#N canvas 394 524 393 327 10;
#X declare -path ../../Data -path ../../Effects -path ../../Misc -path
../../Signal -path ../../Sources -path ../../Unity;
#X obj -5 -43 declare -path ../../Data -path ../../Effects -path ../../Misc
-path ../../Signal -path ../../Sources -path ../../Unity;
#X text -7 28 ---Components---;
#X obj -5 64 uaudiosourcecontainer;
#X obj -5 44 uaudioclipcontainer;
#X obj 212 170 r umastervolume;
#X obj 212 189 line~;
#X obj 176 205 *~;
#X obj 55 205 *~;
#X obj 106 235 dac~;
#X obj 243 65 switch~;
#X obj 243 46 r uresources_switch;
#X obj 106 216 adc~;
#N canvas 572 169 603 126 uresources_messagedelayer 0;
#X obj 12 92 s;
#X obj 12 54 pipe f s 0;
#X obj 12 33 unpack f s f;
#X obj 12 12 r uresources_messagedelayer_f;
#X obj 202 12 r uresources_messagedelayer_ff;
#X obj 202 33 unpack f f s f;
#X obj 202 54 pipe f f s 0;
#X obj 202 75 pack f f;
#X obj 397 12 r uresources_messagedelayer_s;
#X obj 397 33 unpack s s f;
#X obj 397 54 pipe s s 0;
#X connect 1 0 0 0;
#X connect 1 1 0 1;
#X connect 2 0 1 0;
#X connect 2 1 1 1;
#X connect 2 2 1 2;
#X connect 3 0 2 0;
#X connect 4 0 5 0;
#X connect 5 0 6 0;
#X connect 5 1 6 1;
#X connect 5 2 6 2;
#X connect 5 3 6 3;
#X connect 6 0 7 0;
#X connect 6 1 7 1;
#X connect 6 2 0 1;
#X connect 7 0 0 0;
#X connect 8 0 9 0;
#X connect 9 0 10 0;
#X connect 9 1 10 1;
#X connect 9 2 10 2;
#X connect 10 0 0 0;
#X connect 10 1 0 1;
#X restore -5 104 pd uresources_messagedelayer;
#X obj 175 150 catch~ Master_right;
#X obj 55 150 catch~ Master_left;
#X obj -5 84 usequencecontainer;
#X connect 4 0 5 0;
#X connect 5 0 6 1;
#X connect 5 0 7 1;
#X connect 6 0 8 1;
#X connect 7 0 8 0;
#X connect 10 0 9 0;
#X connect 11 0 8 0;
#X connect 11 1 8 1;
#X connect 13 0 6 0;
#X connect 14 0 7 0;
