#N canvas 677 531 391 168 10;
#X obj 23 60 list;
#X obj 23 141 outlet;
#X obj 57 121 delay;
#X obj 57 101 t b a;
#X obj 23 18 r utrack_pattern\$1_\$2;
#X obj 102 64 r utrack_size\$1_\$2;
#X obj 102 104 r utrack_delay\$1_\$2;
#X obj 23 39 t a b;
#X msg 57 39 stop;
#X obj 23 81 list split 1;
#X obj 225 140 outlet;
#X obj 225 120 r usequence_messages\$1;
#X connect 0 0 9 0;
#X connect 2 0 0 0;
#X connect 3 0 2 0;
#X connect 3 1 0 1;
#X connect 4 0 7 0;
#X connect 5 0 9 1;
#X connect 6 0 2 1;
#X connect 7 0 0 0;
#X connect 7 1 0 1;
#X connect 7 1 8 0;
#X connect 8 0 2 0;
#X connect 9 0 1 0;
#X connect 9 1 3 0;
#X connect 11 0 10 0;
