#N canvas 743 313 446 189 10;
#X obj 21 16 inlet~;
#X obj 214 18 inlet~;
#X obj 20 152 outlet~;
#X obj 214 152 outlet~;
#X obj 20 73 *~;
#X obj 52 57 line~;
#X obj 246 57 line~;
#X obj 214 73 *~;
#X obj 20 122 *~;
#X obj 214 122 *~;
#X obj 246 106 line~;
#X obj 52 37 r usequence_pan_left\$1;
#X obj 246 37 r usequence_pan_right\$1;
#X obj 246 86 r usequence_volume\$1;
#X connect 0 0 4 0;
#X connect 1 0 7 0;
#X connect 4 0 8 0;
#X connect 5 0 4 1;
#X connect 6 0 7 1;
#X connect 7 0 9 0;
#X connect 8 0 2 0;
#X connect 9 0 3 0;
#X connect 10 0 9 1;
#X connect 10 0 8 1;
#X connect 11 0 5 0;
#X connect 12 0 6 0;
#X connect 13 0 10 0;
