#N canvas 560 298 464 178 10;
#N canvas 740 649 450 203 usequence 0;
#X obj 21 41 switch~;
#X obj 21 20 r usequence_switch1;
#X obj 21 140 usequencespatializer 1;
#X obj 21 120 usequencestopper 1;
#X obj 21 79 usequencestepper 1;
#X obj 21 160 usequenceoutput 1;
#N canvas 43 653 311 113 utrack 0;
#X obj 23 65 outlet~ left;
#X obj 103 65 outlet~ right;
#X obj 23 44 ../../Instruments/example;
#X obj 23 24 usequencemessager 1 1;
#X connect 2 0 0 0;
#X connect 2 1 1 0;
#X connect 3 0 2 0;
#X connect 3 1 2 1;
#X restore 21 99 pd utrack example;
#X connect 6 0 2 0;
#X connect 6 1 2 1;
#X connect 6 0 3 0;
#X connect 6 1 3 0;
#X connect 1 0 0 0;
#X connect 2 0 5 0;
#X connect 2 1 5 1;
#X connect 6 0 3 0;
#X connect 6 0 2 0;
#X connect 6 1 3 0;
#X connect 6 1 2 1;
#X restore 22 19 pd usequence Urlu;
