#N canvas 959 523 309 242 10;
#X obj 18 67 == 0;
#X obj 18 87 sel 0 1;
#X msg 18 107 stop;
#X obj 18 27 inlet~;
#X obj 18 47 snapshot~;
#X obj 18 187 s usequence_stop;
#X obj 117 30 metro;
#X obj 18 147 delay;
#X obj 117 -11 r usequence_stopper\$1;
#X obj 144 130 r usequence_sleep\$1;
#X obj 18 167 \$1;
#X obj 55 107 spigot;
#X obj 117 9 t f f;
#X obj 55 127 t b b;
#X obj 144 110 / 5;
#X msg 98 107 0;
#X obj 18 127 t a b;
#X msg 98 127 1;
#X connect 0 0 1 0;
#X connect 1 0 2 0;
#X connect 1 1 11 0;
#X connect 2 0 16 0;
#X connect 3 0 4 0;
#X connect 4 0 0 0;
#X connect 6 0 4 0;
#X connect 7 0 10 0;
#X connect 8 0 12 0;
#X connect 9 0 7 1;
#X connect 9 0 14 0;
#X connect 10 0 5 0;
#X connect 11 0 13 0;
#X connect 12 0 6 0;
#X connect 12 1 11 1;
#X connect 13 0 7 0;
#X connect 13 1 15 0;
#X connect 14 0 6 1;
#X connect 15 0 11 1;
#X connect 16 0 7 0;
#X connect 16 1 17 0;
#X connect 17 0 11 1;
