#N canvas 455 652 307 199 10;
#X declare -path ../Signal;
#X obj 20 6 declare -path ../Signal;
#X obj 20 137 outlet;
#X obj 20 97 lfo~ \$1 \$2 \$3;
#X obj 20 117 unsig~;
#X obj 20 38 inlet frequency;
#X obj 57 58 inlet amplitude;
#X obj 95 78 inlet center;
#X connect 2 0 3 0;
#X connect 3 0 1 0;
#X connect 4 0 2 0;
#X connect 5 0 2 1;
#X connect 6 0 2 2;
