#N canvas 682 483 934 367 10;
#X obj 37 156 metro;
#X obj 64 76 \$1;
#X obj 64 96 t b f;
#X obj 64 136 /;
#X msg 64 116 2500;
#X obj 107 173 sequencer;
#X msg 158 73 6 0 0 1 0 0 2 0 0 1 0 0 3 0 0 1 0 0 2 0 0 1 0 0 4 0 0
1 0 0 2 0 0 1 0 0 3 0 0 1 0 0 2 0 0 1 0 0 5 0 0 1 0 0 2 0 0 1 0 0 3
0 0 1 0 0 2 0 0 1 0 0 4 0 0 1 0 0 2 0 0 1 0 0 3 0 0 1 0 0 2 0 0 1 0
0;
#X obj 107 193 sel 1 2 3 4 5 6;
#X obj 487 173 sequencer;
#X msg 538 73 4 0 0 0 1 0 0 0 2 0 0 0 1 0 0 0 3 0 0 0 1 0 0 0 2 0 0
0 1 0 0 0;
#X obj 487 193 sel 1 2 3 4;
#X obj 140 18 inlet tempo;
#X obj 37 18 inlet start/stop;
#X obj 37 56 t f b;
#X obj 37 38 tgl 15 0 empty empty empty 17 7 0 10 -262144 -1 -1 1 1
;
#X obj 107 213 s 1/32_beat;
#X obj 121 233 s 1/16_beat;
#X obj 136 253 s 1/8_beat;
#X obj 150 273 s 1/4_beat;
#X obj 165 293 s 1/2_beat;
#X obj 179 313 s 1/1_beat;
#X obj 487 253 s 1/24_beat;
#X obj 502 273 s 1/12_beat;
#X obj 518 293 s 1/6_beat;
#X obj 534 313 s 1/3_beat;
#X connect 0 0 5 0;
#X connect 0 0 8 0;
#X connect 1 0 2 0;
#X connect 2 0 4 0;
#X connect 2 1 3 1;
#X connect 3 0 0 1;
#X connect 4 0 3 0;
#X connect 5 0 7 0;
#X connect 6 0 5 1;
#X connect 7 0 15 0;
#X connect 7 1 15 0;
#X connect 7 1 16 0;
#X connect 7 2 15 0;
#X connect 7 2 17 0;
#X connect 7 2 16 0;
#X connect 7 3 15 0;
#X connect 7 3 16 0;
#X connect 7 3 18 0;
#X connect 7 3 17 0;
#X connect 7 4 15 0;
#X connect 7 4 16 0;
#X connect 7 4 17 0;
#X connect 7 4 18 0;
#X connect 7 4 19 0;
#X connect 7 5 15 0;
#X connect 7 5 16 0;
#X connect 7 5 17 0;
#X connect 7 5 18 0;
#X connect 7 5 19 0;
#X connect 7 5 20 0;
#X connect 8 0 10 0;
#X connect 9 0 8 1;
#X connect 10 0 21 0;
#X connect 10 1 21 0;
#X connect 10 1 22 0;
#X connect 10 2 21 0;
#X connect 10 2 23 0;
#X connect 10 2 22 0;
#X connect 10 3 21 0;
#X connect 10 3 22 0;
#X connect 10 3 24 0;
#X connect 10 3 23 0;
#X connect 11 0 1 0;
#X connect 12 0 14 0;
#X connect 13 0 0 0;
#X connect 13 1 1 0;
#X connect 13 1 6 0;
#X connect 13 1 9 0;
#X connect 14 0 13 0;
