#N canvas 75 172 486 236 10;
#X obj 25 137 random;
#X obj 315 21 loadbang;
#X obj 340 80 \$1;
#X obj 315 80 \$2;
#X obj 315 100 -;
#X obj 25 177 +;
#X obj 25 157 / 100000;
#X obj 25 197 outlet;
#X obj 66 43 t b f;
#X obj 107 43 t b f;
#X msg 339 121 10;
#X obj 354 102 \$3;
#X obj 339 140 pow;
#X obj 315 60 t b b b;
#X obj 315 120 *;
#X obj 148 43 t b f;
#X obj 25 22 route bang min max precision;
#X obj 25 2 inlet commands;
#X obj 217 62 unpack f f f;
#X obj 190 43 t b a;
#X obj 93 83 s min\$0;
#X obj 66 103 s init\$0;
#X obj 134 102 s max\$0;
#X obj 175 82 s precision\$0;
#X obj 315 41 r init\$0;
#X obj 364 63 r min\$0;
#X obj 414 63 r max\$0;
#X obj 379 85 r precision\$0;
#X connect 0 0 6 0;
#X connect 1 0 13 0;
#X connect 2 0 4 1;
#X connect 2 0 5 1;
#X connect 3 0 4 0;
#X connect 4 0 14 0;
#X connect 5 0 7 0;
#X connect 6 0 5 0;
#X connect 8 0 21 0;
#X connect 8 1 20 0;
#X connect 9 0 21 0;
#X connect 9 1 22 0;
#X connect 10 0 12 0;
#X connect 11 0 12 1;
#X connect 12 0 14 1;
#X connect 12 0 6 1;
#X connect 13 0 3 0;
#X connect 13 1 2 0;
#X connect 13 1 10 0;
#X connect 13 2 11 0;
#X connect 14 0 0 1;
#X connect 15 0 21 0;
#X connect 15 1 23 0;
#X connect 16 0 0 0;
#X connect 16 1 8 0;
#X connect 16 2 9 0;
#X connect 16 3 15 0;
#X connect 16 4 19 0;
#X connect 17 0 16 0;
#X connect 18 0 20 0;
#X connect 18 1 22 0;
#X connect 18 2 23 0;
#X connect 19 0 21 0;
#X connect 19 1 18 0;
#X connect 24 0 13 0;
#X connect 25 0 2 1;
#X connect 26 0 3 1;
#X connect 27 0 11 1;
