#N canvas 0 0 334 111 10;
#X obj 14 12 inlet;
#X obj 82 12 inlet;
#X obj 14 32 spigot;
#X msg 55 32 0;
#X msg 83 32 1;
#X obj 14 52 t a b;
#X obj 14 72 outlet;
#X connect 0 0 2 0;
#X connect 1 0 4 0;
#X connect 2 0 5 0;
#X connect 3 0 2 1;
#X connect 4 0 2 1;
#X connect 5 0 6 0;
#X connect 5 1 3 0;
