#N canvas 730 521 315 180 10;
#X obj 25 27 inlet;
#X obj 134 28 inlet gate;
#X obj 25 83 spigot;
#X obj 25 103 spigot;
#X msg 68 66 0;
#X msg 68 86 0;
#X msg 95 66 1;
#X msg 95 86 1;
#X obj 134 49 sel 0 1 2;
#X obj 25 126 outlet left;
#X obj 98 126 outlet right;
#X obj 209 12 loadbang;
#X obj 209 32 \$1;
#X connect 0 0 2 0;
#X connect 0 0 3 0;
#X connect 1 0 8 0;
#X connect 2 0 9 0;
#X connect 3 0 10 0;
#X connect 4 0 2 1;
#X connect 5 0 3 1;
#X connect 6 0 2 1;
#X connect 7 0 3 1;
#X connect 8 0 4 0;
#X connect 8 0 5 0;
#X connect 8 1 6 0;
#X connect 8 1 5 0;
#X connect 8 2 4 0;
#X connect 8 2 7 0;
#X connect 11 0 12 0;
#X connect 12 0 8 0;
